<svg width="1099" height="615" viewBox="0 0 1099 615" fill="none" xmlns="http://www.w3.org/2000/svg">
<path d="M581.576 0L258.882 475.859L642.373 466.436L815.412 532.397L581.576 0Z" fill="#C0863E"/>
<path d="M547.046 253H673V262.723H577.424L577.424 262.712H568.443V262.723H554.724L526.841 382.236H516.941L487.441 262.723H453.698V411H444V253H495.119L517.951 345.369C518.759 348.34 519.365 351.851 519.769 355.903C520.308 359.954 520.712 363.532 520.982 366.638C521.251 369.744 521.453 371.5 521.588 371.905H522.194C522.329 371.5 522.531 369.744 522.8 366.638C523.07 363.397 523.406 359.819 523.811 355.903C524.215 351.851 524.753 348.408 525.427 345.572L547.046 253Z" fill="#FFEDED"/>
<path d="M563.817 276.7L568.443 276.722V276.763H577.332L577.34 281.219L577.429 411H567.731V289.155C567.602 290.374 567.375 291.961 567.05 293.918C566.646 297.024 566.107 300.67 565.433 304.856C564.894 308.908 564.221 312.959 563.413 317.01C562.739 320.926 562.066 324.168 561.392 326.733L540.177 411H502.999L480.369 326.936C479.831 325.045 479.224 322.344 478.551 318.833C477.877 315.187 477.204 311.338 476.53 307.287C475.857 303.101 475.251 299.252 474.712 295.741C474.173 292.095 473.769 289.259 473.5 287.233H472.287C472.422 288.449 472.557 290.812 472.691 294.323C472.961 297.834 473.163 302.021 473.298 306.882C473.567 311.609 473.836 316.605 474.106 321.872C474.375 327.138 474.577 332.135 474.712 336.862C474.847 341.588 474.914 345.572 474.914 348.813V411H465.215V276.7H476.934L510.475 401.277H532.499L563.817 276.7Z" fill="#FFEDED"/>
<path d="M590.665 276.763H668.455V286.487H600.363V323.353H659.766V333.076H590.665V276.763Z" fill="#FFEDED"/>
<path d="M590.665 343.758H659.766V353.481H600.363V411H590.665V343.758Z" fill="#FFEDED"/>
<path fill-rule="evenodd" clip-rule="evenodd" d="M758.275 518.414L829.301 544.587L672.233 187.334L1096.96 254.141L783.163 600.272L758.275 518.414ZM500.846 102.603L495.582 13.1636L0 370.481L261.567 452.875L500.846 102.603ZM355.4 482.433L522.959 478.368L526.367 536.288L355.4 482.433Z" fill="#C0863E"/>
</svg>
